<?xml version="1.0" standalone="no"?>
<!DOCTYPE svg PUBLIC "-//W3C//DTD SVG 20010904//EN"
 "http://www.w3.org/TR/2001/REC-SVG-20010904/DTD/svg10.dtd">
<svg version="1.0" xmlns="http://www.w3.org/2000/svg"
 width="400.000000pt" height="400.000000pt" viewBox="0 0 400.000000 400.000000"
 preserveAspectRatio="xMidYMid meet">
<metadata>
Created by potrace 1.14, written by Peter Selinger 2001-2017
</metadata>
<g transform="translate(0.000000,400.000000) scale(0.100000,-0.100000)"
fill="#000000" stroke="none">
<path d="M0 2000 l0 -2000 2000 0 2000 0 0 2000 0 2000 -2000 0 -2000 0 0
-2000z m3317 1157 c225 -79 375 -296 428 -617 27 -162 16 -427 -23 -570 -85
-309 -279 -503 -587 -587 -120 -32 -362 -43 -477 -20 l-78 15 0 -349 0 -349
-215 0 -215 0 0 1245 0 1245 190 0 190 0 1 -102 c1 -57 4 -116 8 -131 l6 -29
59 62 c79 82 165 142 257 178 97 39 110 41 259 37 103 -2 138 -7 197 -28z
m-1407 -1237 l0 -1240 -185 0 -185 0 -1 98 c-1 53 -4 110 -8 126 l-6 30 -50
-56 c-73 -82 -175 -155 -274 -197 -86 -36 -87 -36 -231 -36 -133 0 -151 3
-218 28 -233 87 -371 289 -427 627 -27 160 -16 417 23 560 88 321 296 527 607
601 120 28 361 37 458 16 l67 -15 0 349 0 349 215 0 215 0 0 -1240z"/>
<path d="M2904 2804 c-61 -22 -149 -98 -241 -208 l-83 -99 0 -383 0 -383 53
-17 c30 -9 104 -18 178 -21 104 -5 135 -2 180 12 146 49 247 166 297 347 25
91 24 415 -2 507 -50 180 -136 262 -275 260 -37 0 -84 -7 -107 -15z"/>
<path d="M1072 2131 c-130 -49 -219 -143 -270 -286 -34 -96 -43 -161 -42 -305
0 -241 38 -380 125 -465 50 -48 98 -65 186 -65 114 0 205 61 341 230 l68 85
-2 395 -3 395 -50 13 c-27 7 -106 15 -175 18 -107 4 -132 2 -178 -15z"/>
</g>
</svg>
