<?xml version="1.0" standalone="no"?>
<!DOCTYPE svg PUBLIC "-//W3C//DTD SVG 20010904//EN"
 "http://www.w3.org/TR/2001/REC-SVG-20010904/DTD/svg10.dtd">
<svg version="1.0" xmlns="http://www.w3.org/2000/svg"
 width="569.000000pt" height="380.000000pt" viewBox="0 0 569.000000 380.000000"
 preserveAspectRatio="xMidYMid meet">

<g transform="translate(0.000000,380.000000) scale(0.100000,-0.100000)"
fill="#000000" stroke="none">
<path d="M2308 3634 c-5 -4 -8 -26 -8 -49 0 -33 -6 -47 -33 -73 l-33 -32 -877
0 -876 0 -3 -914 -3 -915 -34 -35 -34 -35 -136 -4 -136 -3 141 -2 140 -2 32
-33 32 -33 0 -547 0 -547 -173 -3 -172 -3 172 -2 172 -2 4 -127 3 -128 2 128
2 128 530 -3 530 -3 27 -28 c26 -25 28 -35 34 -125 l5 -97 2 96 c2 94 3 96 35
127 l33 32 307 0 307 0 0 -125 c0 -77 4 -125 10 -125 6 0 10 48 10 125 l0 125
1413 0 1412 0 20 -30 c23 -35 35 -37 60 -10 10 11 22 20 26 20 5 0 10 -53 12
-117 l3 -118 2 128 2 127 128 2 127 2 -123 3 c-111 3 -123 5 -118 21 16 58 17
85 5 93 -12 7 -14 254 -17 1484 l-2 1475 -1448 0 -1448 0 -27 28 c-20 21 -27
39 -29 80 -2 30 -6 50 -10 46z m-229 -168 c-2 -3 -47 -14 -99 -25 -357 -74
-682 -246 -943 -500 -173 -167 -280 -315 -382 -526 -70 -144 -103 -239 -139
-395 l-25 -105 0 778 -1 777 797 0 c438 0 794 -2 792 -4z m3180 -1368 c-1
-1371 -1 -1373 -19 -1263 -86 508 -328 1033 -677 1470 -110 139 -358 392 -487
498 -395 328 -829 545 -1266 633 -69 14 -127 27 -129 30 -2 2 577 4 1287 4
l1292 0 -1 -1372z m-2569 1335 c446 -64 908 -277 1325 -610 141 -112 405 -376
519 -518 267 -335 498 -768 605 -1136 63 -218 111 -501 111 -652 l0 -72 -19
24 -19 24 -41 -32 c-22 -18 -41 -37 -41 -42 0 -5 -561 -9 -1405 -9 l-1405 0 0
321 0 320 32 40 32 39 -32 33 -32 33 0 1104 0 1104 28 29 27 29 105 -7 c58 -3
152 -13 210 -22z m-418 -10 l28 -27 0 -909 0 -910 -175 5 -175 4 -38 37 -38
37 -36 -40 -37 -40 -617 0 -618 0 -33 32 c-31 30 -33 36 -33 101 0 220 82 522
202 747 283 532 794 885 1418 983 14 3 47 5 74 6 42 1 55 -4 78 -26z m-662
-1951 c0 -96 -1 -99 -30 -127 -16 -16 -30 -34 -30 -40 0 -6 13 -26 30 -45 l29
-35 1 -371 0 -370 -35 -34 -34 -33 -88 6 c-244 15 -460 120 -639 309 -158 166
-259 393 -300 669 l-16 111 28 29 28 29 528 0 528 0 0 -98z m116 78 c-49 -25
-65 -38 -88 -75 l-18 -30 0 63 0 62 73 0 72 -1 -39 -19z m352 -19 c55 -28 119
-102 158 -184 43 -92 54 -160 29 -187 -17 -18 -31 -20 -170 -20 l-151 0 -27
28 c-35 36 -34 53 3 95 17 19 30 39 30 44 0 5 -13 22 -30 38 -28 26 -30 34
-30 98 0 62 3 71 28 97 27 26 32 27 75 19 25 -4 64 -17 85 -28z m222 -123 l0
-163 -24 66 c-40 115 -104 195 -191 242 -29 16 -26 16 93 17 l122 0 0 -162z
m-453 120 c19 -18 23 -31 23 -87 0 -60 -3 -68 -32 -98 -29 -30 -37 -33 -94
-33 -58 0 -64 2 -89 32 -21 24 -25 38 -21 61 11 53 45 94 98 121 63 32 85 32
115 4z m-1287 -413 c122 -344 364 -586 682 -679 l83 -25 -417 0 -418 -1 1 483
0 482 19 -85 c10 -47 33 -125 50 -175z m1276 153 l29 -23 -45 -6 -45 -6 48 -1
c57 -2 60 -15 13 -61 -30 -29 -40 -33 -71 -28 -46 8 -89 39 -105 77 -11 26
-10 33 5 50 27 30 132 28 171 -2z m-196 -57 c0 -5 12 -23 26 -40 l26 -31 -36
0 c-35 0 -36 1 -36 40 0 22 5 40 10 40 6 0 10 -4 10 -9z m200 -126 l36 -35 34
35 34 35 145 0 145 0 33 -32 c39 -38 39 -45 12 -134 -68 -224 -284 -430 -527
-504 l-73 -22 -30 28 -29 28 0 318 0 318 92 0 c92 0 92 0 128 -35z m460 -420
l0 -255 -292 1 -293 0 65 23 c214 74 393 229 483 418 18 37 33 68 35 68 1 0 2
-115 2 -255z"/>
</g>
</svg>
